<?xml version="1.0" encoding="UTF-8"?>
<svg xmlns="http://www.w3.org/2000/svg" viewBox="0 0 399.23 402.64">
  <defs>
    <style>.cls-1{fill:#62140c;}.cls-2{fill:#c2191a;}.cls-3{fill:#9c1915;}.cls-4{fill:#fff;}.cls-5{fill:#62150f;}</style>
  </defs>
  <g id="Ebene_2" data-name="Ebene 2">
    <g id="Ebene_1-2" data-name="Ebene 1">
      <circle class="cls-1" cx="272.71" cy="276.11" r="126.53"></circle>
      <circle class="cls-2" cx="83.87" cy="241.51" r="83.87"></circle>
      <circle class="cls-3" cx="190.4" cy="116.64" r="116.64"></circle>
      <path class="cls-4" d="M282.71,179a97.13,97.13,0,1,0-97.13,97.13h97.13Z"></path>
      <path class="cls-2" d="M133.58,211.08a18.58,18.58,0,0,1-8.37-1.71,17,17,0,0,1-5.58-4.32v2.88a2.33,2.33,0,0,1-2.25,2.25H107.21a2.12,2.12,0,0,1-1.62-.68,2.22,2.22,0,0,1-.63-1.57V148.54a2.16,2.16,0,0,1,2.25-2.25h11a2.16,2.16,0,0,1,2.25,2.25v19.25a18,18,0,0,1,5.49-3.82,18.22,18.22,0,0,1,7.65-1.48,20,20,0,0,1,8,1.48,16.36,16.36,0,0,1,5.89,4.23,19.5,19.5,0,0,1,3.78,6.66,30,30,0,0,1,1.53,8.68c.06,1.2.09,2.27.09,3.2s0,2-.09,3.19a30.79,30.79,0,0,1-1.53,8.95,19.1,19.1,0,0,1-3.82,6.66,16,16,0,0,1-5.89,4.14A20.89,20.89,0,0,1,133.58,211.08ZM128.72,199a7.91,7.91,0,0,0,4.77-1.26,7,7,0,0,0,2.47-3.42,17.94,17.94,0,0,0,.95-4.77,43.29,43.29,0,0,0,0-5.58,17.94,17.94,0,0,0-.95-4.77,7,7,0,0,0-2.47-3.42,7.91,7.91,0,0,0-4.77-1.26,8,8,0,0,0-4.59,1.22,7.62,7.62,0,0,0-2.7,3.15,10.82,10.82,0,0,0-1,4.18q-.09,1.71-.09,3.33t.09,3.42a15.4,15.4,0,0,0,1,4.5,7.37,7.37,0,0,0,2.61,3.37A7.79,7.79,0,0,0,128.72,199Z"></path>
      <path class="cls-2" d="M190.36,211.08a18.58,18.58,0,0,1-8.37-1.71,17,17,0,0,1-5.58-4.32v2.88a2.33,2.33,0,0,1-2.25,2.25H164a2.12,2.12,0,0,1-1.62-.68,2.22,2.22,0,0,1-.63-1.57V148.54a2.16,2.16,0,0,1,2.25-2.25h11a2.16,2.16,0,0,1,2.25,2.25v19.25a18,18,0,0,1,5.49-3.82,18.22,18.22,0,0,1,7.65-1.48,20.07,20.07,0,0,1,8,1.48,16.36,16.36,0,0,1,5.89,4.23,19.5,19.5,0,0,1,3.78,6.66,30,30,0,0,1,1.53,8.68c.06,1.2.09,2.27.09,3.2s0,2-.09,3.19a30.79,30.79,0,0,1-1.53,8.95,19.1,19.1,0,0,1-3.82,6.66,16,16,0,0,1-5.9,4.14A20.84,20.84,0,0,1,190.36,211.08ZM185.5,199a7.88,7.88,0,0,0,4.76-1.26,7.06,7.06,0,0,0,2.48-3.42,17.94,17.94,0,0,0,.94-4.77,43.29,43.29,0,0,0,0-5.58,17.94,17.94,0,0,0-.94-4.77,7.06,7.06,0,0,0-2.48-3.42,7.88,7.88,0,0,0-4.76-1.26,8,8,0,0,0-4.59,1.22,7.62,7.62,0,0,0-2.7,3.15,10.82,10.82,0,0,0-1,4.18q-.09,1.71-.09,3.33t.09,3.42a15.4,15.4,0,0,0,1,4.5,7.37,7.37,0,0,0,2.61,3.37A7.79,7.79,0,0,0,185.5,199Z"></path>
      <path class="cls-2" d="M247.13,211.08a18.51,18.51,0,0,1-8.36-1.71,16.86,16.86,0,0,1-5.58-4.32v2.88a2.33,2.33,0,0,1-2.25,2.25H220.77a2.12,2.12,0,0,1-1.62-.68,2.22,2.22,0,0,1-.63-1.57V148.54a2.16,2.16,0,0,1,2.25-2.25h11a2.16,2.16,0,0,1,2.25,2.25v19.25a17.85,17.85,0,0,1,5.49-3.82,18.14,18.14,0,0,1,7.64-1.48,20.09,20.09,0,0,1,8,1.48A16.36,16.36,0,0,1,261,168.2a19.5,19.5,0,0,1,3.78,6.66,30,30,0,0,1,1.53,8.68c.06,1.2.09,2.27.09,3.2s0,2-.09,3.19a30.79,30.79,0,0,1-1.53,8.95,19.1,19.1,0,0,1-3.82,6.66,16,16,0,0,1-5.9,4.14A20.85,20.85,0,0,1,247.13,211.08ZM242.27,199a7.91,7.91,0,0,0,4.77-1.26,7.06,7.06,0,0,0,2.48-3.42,17.94,17.94,0,0,0,.94-4.77,43.29,43.29,0,0,0,0-5.58,17.94,17.94,0,0,0-.94-4.77A7.06,7.06,0,0,0,247,175.8a9.43,9.43,0,0,0-9.35,0,7.54,7.54,0,0,0-2.7,3.15,10.82,10.82,0,0,0-1,4.18q-.09,1.71-.09,3.33t.09,3.42a15.4,15.4,0,0,0,1,4.5,7.3,7.3,0,0,0,2.61,3.37A7.75,7.75,0,0,0,242.27,199Z"></path>
      <path class="cls-4" d="M198,325.37a18.66,18.66,0,0,1-6.15-.89,14.27,14.27,0,0,1-4.17-2.18,10.45,10.45,0,0,1-2.4-2.57,4.91,4.91,0,0,1-.87-2.05,1.15,1.15,0,0,1,.45-1.09,1.73,1.73,0,0,1,1-.38h2.88a1.32,1.32,0,0,1,.55.1,1.88,1.88,0,0,1,.6.54,24.57,24.57,0,0,0,1.86,1.79,8.46,8.46,0,0,0,2.54,1.48,12.29,12.29,0,0,0,9.13-.67,4,4,0,0,0,2.11-3.69,3.66,3.66,0,0,0-.86-2.56,7.44,7.44,0,0,0-3.08-1.73,52.92,52.92,0,0,0-6.06-1.61,21.74,21.74,0,0,1-6.08-2.21,8,8,0,0,1-3.21-3.14,8.74,8.74,0,0,1-1-4.13,8.45,8.45,0,0,1,1.41-4.59,10.51,10.51,0,0,1,4.13-3.62,14.77,14.77,0,0,1,6.83-1.41,17.13,17.13,0,0,1,5.7.84,12.74,12.74,0,0,1,3.91,2.08,10.41,10.41,0,0,1,2.31,2.47,4.92,4.92,0,0,1,.84,2.05,1.22,1.22,0,0,1-.39,1.06,1.49,1.49,0,0,1-1,.41h-2.69a1.26,1.26,0,0,1-.73-.19,3.38,3.38,0,0,1-.55-.45,16.16,16.16,0,0,0-1.51-1.67,6.71,6.71,0,0,0-2.24-1.37,9.84,9.84,0,0,0-3.62-.55,7.32,7.32,0,0,0-4.81,1.35,4.24,4.24,0,0,0-1.6,3.39,3.52,3.52,0,0,0,.71,2.18,5.91,5.91,0,0,0,2.69,1.74,46.82,46.82,0,0,0,5.89,1.66,22.11,22.11,0,0,1,6.67,2.24,8.93,8.93,0,0,1,3.46,3.27,8.79,8.79,0,0,1,1,4.3,8.56,8.56,0,0,1-1.54,4.93,10.29,10.29,0,0,1-4.62,3.56A19.18,19.18,0,0,1,198,325.37Z"></path>
      <path class="cls-4" d="M232.52,325.37q-6.66,0-10.57-4.07t-4.3-11.12c0-.55-.06-1.27-.06-2.14s0-1.59.06-2.15a18.76,18.76,0,0,1,2.12-8,13.24,13.24,0,0,1,5.09-5.29,15,15,0,0,1,7.6-1.86,15.26,15.26,0,0,1,8.17,2.05,13.09,13.09,0,0,1,5,5.84,21,21,0,0,1,1.73,8.84v1.09a1.44,1.44,0,0,1-.41,1.09,1.49,1.49,0,0,1-1.06.39H223.74v.57a13.39,13.39,0,0,0,1.16,4.91,9,9,0,0,0,3,3.68,7.62,7.62,0,0,0,4.58,1.41,9.27,9.27,0,0,0,3.85-.7,10.06,10.06,0,0,0,2.49-1.57,7.67,7.67,0,0,0,1.29-1.38,3.42,3.42,0,0,1,.89-.93,2.42,2.42,0,0,1,1-.16h3.14a1.5,1.5,0,0,1,1,.35,1.09,1.09,0,0,1,.36,1,5,5,0,0,1-1,2.34,12.72,12.72,0,0,1-2.72,2.73,15,15,0,0,1-4.36,2.21A18.44,18.44,0,0,1,232.52,325.37Zm-8.78-19.74H241.3v-.19a12,12,0,0,0-1.05-5.13,8.51,8.51,0,0,0-3.05-3.55,8.35,8.35,0,0,0-4.74-1.32,8.2,8.2,0,0,0-4.71,1.32,8.29,8.29,0,0,0-3,3.55,12.14,12.14,0,0,0-1,5.13Z"></path>
      <path class="cls-4" d="M256.56,324.73a1.41,1.41,0,0,1-1.47-1.47V292.94a1.54,1.54,0,0,1,.41-1.09,1.38,1.38,0,0,1,1.06-.45h2.95a1.54,1.54,0,0,1,1.54,1.54v2.82a8.12,8.12,0,0,1,3.52-3.27A12.49,12.49,0,0,1,270,291.4h2.5a1.43,1.43,0,0,1,1.06.42,1.46,1.46,0,0,1,.41,1.06v2.63a1.34,1.34,0,0,1-.41,1,1.49,1.49,0,0,1-1.06.39h-3.85a7.3,7.3,0,0,0-5.44,2,7.48,7.48,0,0,0-2,5.49v18.84a1.38,1.38,0,0,1-.45,1.06,1.53,1.53,0,0,1-1.09.41Z"></path>
      <path class="cls-4" d="M291,324.73a2.28,2.28,0,0,1-1.5-.45,3,3,0,0,1-.87-1.15l-11.86-29.74a1.83,1.83,0,0,1-.13-.64A1.33,1.33,0,0,1,278,291.4h3.08a1.47,1.47,0,0,1,1.09.39,2.49,2.49,0,0,1,.51.7l9.74,25.26,9.74-25.26a2.57,2.57,0,0,1,.49-.7,1.33,1.33,0,0,1,1.05-.39h3.14a1.32,1.32,0,0,1,.93.39,1.26,1.26,0,0,1,.42,1,1.63,1.63,0,0,1-.13.64l-11.92,29.74a2.58,2.58,0,0,1-.8,1.15,2.43,2.43,0,0,1-1.57.45Z"></path>
      <path class="cls-4" d="M327.06,325.37q-6.66,0-10.57-4.07t-4.3-11.12c0-.55-.06-1.27-.06-2.14s0-1.59.06-2.15a18.76,18.76,0,0,1,2.12-8,13.17,13.17,0,0,1,5.09-5.29,15,15,0,0,1,7.6-1.86,15.26,15.26,0,0,1,8.17,2.05,13.09,13.09,0,0,1,5,5.84,21,21,0,0,1,1.73,8.84v1.09a1.44,1.44,0,0,1-.41,1.09,1.49,1.49,0,0,1-1.06.39H318.28v.57a13.39,13.39,0,0,0,1.16,4.91,9,9,0,0,0,3,3.68,7.62,7.62,0,0,0,4.58,1.41,9.18,9.18,0,0,0,3.84-.7,10,10,0,0,0,2.5-1.57,7.67,7.67,0,0,0,1.29-1.38,3.42,3.42,0,0,1,.89-.93,2.42,2.42,0,0,1,1-.16h3.14a1.52,1.52,0,0,1,1,.35,1.09,1.09,0,0,1,.36,1,5,5,0,0,1-1,2.34,12.72,12.72,0,0,1-2.72,2.73,15,15,0,0,1-4.36,2.21A18.44,18.44,0,0,1,327.06,325.37Zm-8.78-19.74h17.56v-.19a12,12,0,0,0-1-5.13,8.51,8.51,0,0,0-3.05-3.55,8.35,8.35,0,0,0-4.74-1.32,8.2,8.2,0,0,0-4.71,1.32,8.29,8.29,0,0,0-3,3.55,12.14,12.14,0,0,0-1,5.13Z"></path>
      <path class="cls-4" d="M351.1,324.73a1.42,1.42,0,0,1-1.48-1.47V292.94a1.55,1.55,0,0,1,.42-1.09,1.38,1.38,0,0,1,1.06-.45h2.95a1.5,1.5,0,0,1,1.09.45,1.53,1.53,0,0,1,.44,1.09v2.82a8.19,8.19,0,0,1,3.53-3.27,12.49,12.49,0,0,1,5.45-1.09h2.5a1.45,1.45,0,0,1,1.06.42,1.46,1.46,0,0,1,.41,1.06v2.63a1.34,1.34,0,0,1-.41,1,1.51,1.51,0,0,1-1.06.39h-3.85a7.32,7.32,0,0,0-5.45,2,7.51,7.51,0,0,0-2,5.49v18.84a1.38,1.38,0,0,1-.45,1.06,1.53,1.53,0,0,1-1.09.41Z"></path>
      <path class="cls-5" d="M360.49,133.56a20.22,20.22,0,0,1-40.44,0c0-10.92,9-19.68,20.28-19.68S360.49,122.64,360.49,133.56Zm-35.4,0c0,8.76,6.48,15.72,15.36,15.72,8.64,0,15-7,15-15.6s-6.36-15.84-15.12-15.84S325.09,124.92,325.09,133.56Zm12.12,10.32h-4.56V124.2a39.86,39.86,0,0,1,7.56-.6c3.72,0,5.4.6,6.84,1.44a5.46,5.46,0,0,1,1.92,4.32c0,2.16-1.68,3.84-4.08,4.56v.24c1.92.72,3,2.16,3.6,4.8.6,3,1,4.2,1.44,4.92H345c-.6-.72-1-2.52-1.56-4.8-.36-2.16-1.56-3.12-4.08-3.12h-2.16Zm.12-11.16h2.16c2.52,0,4.56-.84,4.56-2.88,0-1.8-1.32-3-4.2-3a10.92,10.92,0,0,0-2.52.24Z"></path>
    </g>
  </g>
</svg>
