<svg xmlns="http://www.w3.org/2000/svg" viewBox="0 0 330 330" width="330" height="330" aria-label="Briar logo">
  <circle cx="165" cy="165" r="165" fill="#FFFFFF" />
  <g transform="translate(0.3 1.2)">
    <path d="M94 144.5V264c0 9.7 7.9 17.7 17.7 17.7h8.3c9.7 0 17.7-8 17.7-17.7V144.5H94Z" fill="#87C214" />
    <path d="M137.7 86.8V64.3c0-9.7-8-17.7-17.7-17.7h-8.3C102 46.6 94 54.6 94 64.3v22.5h43.7Z" fill="#87C214" />
    <path d="M234.7 183.8V64.3c0-9.7-7.9-17.7-17.7-17.7h-8.3c-9.7 0-17.7 8-17.7 17.7v119.5h43.7Z" fill="#87C214" />
    <path d="M191 241.5V264c0 9.7 8 17.7 17.7 17.7h8.3c9.7 0 17.7-8 17.7-17.7v-22.5H191Z" fill="#87C214" />
    <path d="M87 190.8H64.5c-9.7 0-17.7 7.9-17.7 17.7v8.3c0 9.7 7.9 17.7 17.7 17.7H87v-43.7Z" fill="#95D220" />
    <path d="M264.2 190.8H144.7v43.7h119.5c9.7 0 17.7-8 17.7-17.7v-8.3c-.1-9.7-8-17.7-17.7-17.7Z" fill="#95D220" />
    <path d="M184 93.8H64.5c-9.7 0-17.7 7.9-17.7 17.7v8.3c0 9.7 7.9 17.7 17.7 17.7H184V93.8Z" fill="#95D220" />
    <path d="M264.2 93.8h-22.5v43.7h22.5c9.7 0 17.7-7.9 17.7-17.7v-8.3c-.1-9.7-8-17.7-17.7-17.7Z" fill="#95D220" />
  </g>
</svg>
