<svg width="216" height="35" viewBox="0 0 216 35" fill="none" xmlns="http://www.w3.org/2000/svg">
<g clip-path="url(#clip0)">
<path d="M29.68 0H20.86L14.86 10.28H6.86C5.02205 10.28 3.25938 11.0101 1.95975 12.3097C0.660123 13.6094 -0.0699999 15.372 -0.0699999 17.21C-0.0699999 19.0479 0.660123 20.8106 1.95975 22.1103C3.25938 23.4099 5.02205 24.14 6.86 24.14H6.87L0.87 34.43H29.68C34.1739 34.3217 38.4472 32.4604 41.5873 29.2438C44.7273 26.0271 46.4851 21.7102 46.4851 17.215C46.4851 12.7198 44.7273 8.40285 41.5873 5.18622C38.4472 1.96959 34.1739 0.108317 29.68 0V0ZM29.68 30.85H7.11L13.11 20.57H6.93C6.47401 20.5949 6.01772 20.5266 5.58902 20.3692C5.16031 20.2119 4.76818 19.9688 4.43658 19.6548C4.10497 19.3408 3.84086 18.9625 3.66036 18.543C3.47986 18.1236 3.38677 17.6717 3.38677 17.215C3.38677 16.7583 3.47986 16.3064 3.66036 15.887C3.84086 15.4675 4.10497 15.0892 4.43658 14.7752C4.76818 14.4612 5.16031 14.2181 5.58902 14.0608C6.01772 13.9034 6.47401 13.8351 6.93 13.86H29.68C30.136 13.8351 30.5923 13.9034 31.021 14.0608C31.4497 14.2181 31.8418 14.4612 32.1734 14.7752C32.505 15.0892 32.7691 15.4675 32.9496 15.887C33.1301 16.3064 33.2232 16.7583 33.2232 17.215C33.2232 17.6717 33.1301 18.1236 32.9496 18.543C32.7691 18.9625 32.505 19.3408 32.1734 19.6548C31.8418 19.9688 31.4497 20.2119 31.021 20.3692C30.5923 20.5266 30.136 20.5949 29.68 20.57H25L26.27 18.33C26.4744 17.9239 26.5167 17.4553 26.3882 17.0191C26.2597 16.583 25.9701 16.2122 25.5781 15.9818C25.1861 15.7515 24.7212 15.6789 24.2777 15.7789C23.8341 15.8788 23.4453 16.1438 23.19 16.52L18.77 24.14H29.77C30.7015 24.1754 31.6307 24.0225 32.5017 23.6904C33.3728 23.3584 34.1679 22.854 34.8395 22.2074C35.5111 21.5609 36.0453 20.7855 36.4102 19.9277C36.7751 19.0699 36.9632 18.1472 36.9632 17.215C36.9632 16.2828 36.7751 15.3601 36.4102 14.5023C36.0453 13.6445 35.5111 12.8691 34.8395 12.2226C34.1679 11.576 33.3728 11.0716 32.5017 10.7396C31.6307 10.4075 30.7015 10.2546 29.77 10.29H19L22.89 3.57H29.65C33.2676 3.57 36.7369 5.00707 39.2949 7.56506C41.8529 10.1231 43.29 13.5924 43.29 17.21C43.29 20.8276 41.8529 24.2969 39.2949 26.8549C36.7369 29.4129 33.2676 30.85 29.65 30.85H29.68Z" fill="#0372FF"/>
<path d="M15.08 16.09H7.25C6.95296 16.09 6.66808 16.208 6.45804 16.418C6.248 16.6281 6.13 16.913 6.13 17.21C6.13 17.507 6.248 17.7919 6.45804 18.002C6.66808 18.212 6.95296 18.33 7.25 18.33H15.08C15.377 18.33 15.6619 18.212 15.872 18.002C16.082 17.7919 16.2 17.507 16.2 17.21C16.2 16.913 16.082 16.6281 15.872 16.418C15.6619 16.208 15.377 16.09 15.08 16.09V16.09Z" fill="#0372FF"/>
<path d="M15.08 16.09H7.25C6.95296 16.09 6.66809 16.208 6.45805 16.418C6.248 16.6281 6.13 16.913 6.13 17.21C6.13 17.507 6.248 17.7919 6.45805 18.002C6.66809 18.212 6.95296 18.33 7.25 18.33H15.08C15.377 18.33 15.6619 18.212 15.872 18.002C16.082 17.7919 16.2 17.507 16.2 17.21C16.2 16.913 16.082 16.6281 15.872 16.418C15.6619 16.208 15.377 16.09 15.08 16.09V16.09Z" fill="#0372FF"/>
<path d="M71.3693 30.3622C74.75 30.3622 76.0781 28.2976 76.7301 27.1143H77.032V30H80.5575V5.27273H76.9474V14.4609H76.7301C76.0781 13.3139 74.8466 11.2131 71.3935 11.2131C66.9141 11.2131 63.6179 14.7507 63.6179 20.7635C63.6179 26.7642 66.8658 30.3622 71.3693 30.3622ZM72.1662 27.2834C68.9425 27.2834 67.2642 24.446 67.2642 20.7273C67.2642 17.0447 68.9062 14.2798 72.1662 14.2798C75.3175 14.2798 77.0078 16.8516 77.0078 20.7273C77.0078 24.6271 75.2812 27.2834 72.1662 27.2834ZM91.1071 30.4105C94.1738 30.4105 95.9004 28.853 96.5886 27.4645H96.7335V30H100.259V17.6847C100.259 12.2876 96.0091 11.2131 93.063 11.2131C89.7065 11.2131 86.6156 12.5653 85.4082 15.946L88.801 16.7188C89.3322 15.4027 90.6845 14.1349 93.1113 14.1349C95.4416 14.1349 96.6369 15.3544 96.6369 17.4553V17.5398C96.6369 18.8558 95.2846 18.8317 91.9522 19.218C88.4387 19.6286 84.8407 20.5462 84.8407 24.7599C84.8407 28.4062 87.5815 30.4105 91.1071 30.4105ZM91.8919 27.5128C89.8514 27.5128 88.3784 26.5952 88.3784 24.8082C88.3784 22.8764 90.0929 22.1882 92.1816 21.9105C93.3528 21.7536 96.1298 21.4396 96.649 20.9205V23.3111C96.649 25.5085 94.8983 27.5128 91.8919 27.5128ZM118.964 15.9822C118.216 13.0966 115.958 11.2131 111.95 11.2131C107.76 11.2131 104.79 13.4226 104.79 16.7067C104.79 19.3388 106.384 21.0895 109.861 21.8622L113 22.5504C114.787 22.9489 115.62 23.7457 115.62 24.9048C115.62 26.3416 114.087 27.4645 111.72 27.4645C109.559 27.4645 108.17 26.5348 107.736 24.7116L104.246 25.2429C104.85 28.527 107.579 30.3743 111.744 30.3743C116.224 30.3743 119.327 27.9957 119.327 24.6392C119.327 22.0192 117.661 20.4013 114.256 19.6165L111.31 18.9403C109.269 18.4574 108.388 17.7692 108.4 16.5135C108.388 15.0888 109.933 14.0746 111.986 14.0746C114.232 14.0746 115.27 15.3182 115.692 16.5618L118.964 15.9822ZM126.906 18.9886C126.906 16.0305 128.778 14.3402 131.349 14.3402C133.836 14.3402 135.322 15.9219 135.322 18.6385V30H138.932V18.2038C138.932 13.5795 136.396 11.2131 132.581 11.2131C129.695 11.2131 127.956 12.4688 127.087 14.473H126.858V5.27273H123.296V30H126.906V18.9886ZM158.805 16.7429C158.346 13.326 155.594 11.2131 150.909 11.2131C146.164 11.2131 143.037 13.4105 143.049 16.9844C143.037 19.7614 144.787 21.5604 148.41 22.2848L151.621 22.9247C153.239 23.2507 153.976 23.8423 154 24.772C153.976 25.8707 152.78 26.6555 150.981 26.6555C149.146 26.6555 147.927 25.8707 147.613 24.3615L142.554 24.6271C143.037 28.1768 146.055 30.3622 150.969 30.3622C155.775 30.3622 159.216 27.9112 159.228 24.2528C159.216 21.5724 157.465 19.9666 153.867 19.2301L150.51 18.554C148.784 18.1797 148.144 17.5881 148.156 16.6946C148.144 15.5838 149.4 14.8594 150.993 14.8594C152.78 14.8594 153.843 15.8374 154.096 17.0327L158.805 16.7429ZM170.918 30.3622C175.506 30.3622 178.597 28.1286 179.322 24.6875L174.565 24.3736C174.045 25.7862 172.717 26.5227 171.003 26.5227C168.431 26.5227 166.801 24.8203 166.801 22.0554V22.0433H179.43V20.6307C179.43 14.3281 175.615 11.2131 170.713 11.2131C165.256 11.2131 161.718 15.0888 161.718 20.8118C161.718 26.6918 165.207 30.3622 170.918 30.3622ZM166.801 18.8558C166.91 16.7429 168.516 15.0526 170.798 15.0526C173.031 15.0526 174.577 16.6463 174.589 18.8558H166.801ZM182.787 30H187.93V19.5078C187.93 17.2259 189.597 15.6562 191.866 15.6562C192.579 15.6562 193.557 15.777 194.04 15.9339V11.37C193.581 11.2614 192.941 11.1889 192.422 11.1889C190.345 11.1889 188.643 12.3963 187.967 14.6903H187.773V11.4545H182.787V30ZM214.553 11.4545H209.108L205.268 24.7237H205.075L201.224 11.4545H195.79L202.274 30H208.07L214.553 11.4545Z" fill="black"/>
</g>
<defs>
<clipPath id="clip0">
<rect width="215.94" height="34.43" fill="white"/>
</clipPath>
</defs>
</svg>