<svg width="88" height="87" viewBox="0 0 88 87" fill="none" xmlns="http://www.w3.org/2000/svg">
<path d="M44.082 32.9058C45.7683 35.265 47.8425 37.3293 50.2451 38.9955C47.8574 40.6617 45.7683 42.7112 44.082 45.0852C42.3957 42.726 40.3215 40.6617 37.9189 38.9955C40.3066 37.3293 42.3957 35.2797 44.082 32.9058Z" stroke="#E9B747" stroke-width="3" stroke-miterlimit="10"/>
<path d="M22.9664 57.7361H22.9515C20.0714 57.7361 17.7285 60.0511 17.7285 62.8969V84.9849H28.2042V62.8969C28.2042 60.0511 25.8614 57.7361 22.9813 57.7361H22.9664Z" stroke="#1C314B" stroke-width="3" stroke-miterlimit="10"/>
<path d="M43.9175 54.2417H43.9026C41.0225 54.2417 38.6797 56.5567 38.6797 59.4025V84.9851H49.1554V59.4025C49.1554 56.5567 46.8125 54.2417 43.9325 54.2417H43.9175Z" stroke="#1C314B" stroke-width="3" stroke-miterlimit="10"/>
<path d="M65.0484 57.7361H65.0335C62.1534 57.7361 59.8105 60.0511 59.8105 62.8969V84.9849H70.2863V62.8969C70.2863 60.0511 67.9434 57.7361 65.0633 57.7361H65.0484Z" stroke="#1C314B" stroke-width="3" stroke-miterlimit="10"/>
<path d="M43.9924 23.2478L2 38.8038V47.4149H7.32739V85.0001H17.8031" stroke="#1C314B" stroke-width="3" stroke-miterlimit="10"/>
<path d="M70.1971 84.9998H80.6728V47.4147H86.0002V38.8036L44.0078 23.2475V12.3362" stroke="#1C314B" stroke-width="3" stroke-miterlimit="10"/>
<path d="M28.2793 84.9998H59.8855" stroke="#1C314B" stroke-width="3" stroke-miterlimit="10"/>
<path d="M43.9922 2H59.2133V12.3363H43.9922V2Z" stroke="#E9B747" stroke-width="3" stroke-miterlimit="10"/>
<path d="M7.32715 47.4148H29.9648" stroke="#1C314B" stroke-width="3" stroke-miterlimit="10"/>
<path d="M80.4932 47.4148H57.8555" stroke="#1C314B" stroke-width="3" stroke-miterlimit="10"/>
</svg>
