<?xml version="1.0" encoding="utf-8"?>
<!-- Generator: Adobe Illustrator 25.4.1, SVG Export Plug-In . SVG Version: 6.00 Build 0)  -->
<svg version="1.1" id="Ebene_1" xmlns="http://www.w3.org/2000/svg" xmlns:xlink="http://www.w3.org/1999/xlink" x="0px" y="0px"
	 viewBox="0 0 351.4 84.2" style="enable-background:new 0 0 351.4 84.2;" xml:space="preserve">
<style type="text/css">
	.st0{enable-background:new    ;}
	.st1{fill:#FFFFFF;}
	.st2{fill:url(#SVGID_1_);}
	.st3{fill:url(#SVGID_00000024682716010944018070000004678864526226756225_);}
	.st4{fill:url(#SVGID_00000158730129415858793110000004114259957070613405_);}
	.st5{fill:url(#SVGID_00000109018607438442449780000017276495346283894166_);}
</style>
<g>
	<g>
		<g class="st0">
			<path class="st1" d="M126.9,27.4H146c0.1,0.3,0.1,0.7,0.2,1.1c0,0.4,0.1,0.8,0.1,1.1c0,0.4,0,0.8-0.1,1.2c0,0.4-0.1,0.8-0.2,1.1
				h-13.9v10.7h11.6c0.1,0.4,0.1,0.8,0.2,1.1c0,0.4,0.1,0.8,0.1,1.1c0,0.4,0,0.8-0.1,1.1c0,0.4-0.1,0.8-0.2,1.1h-11.6v16.7
				c-0.4,0.1-0.8,0.1-1.2,0.2c-0.4,0-0.9,0.1-1.3,0.1c-0.4,0-0.9,0-1.3-0.1c-0.5,0-0.9-0.1-1.2-0.2V27.4z"/>
			<path class="st1" d="M150.3,37.8c0.4-0.1,0.7-0.1,1.1-0.2c0.3,0,0.7-0.1,1.1-0.1c0.4,0,0.7,0,1.1,0.1c0.4,0,0.7,0.1,1,0.2
				c0.1,0.5,0.2,1.2,0.3,2c0.1,0.8,0.2,1.5,0.2,2.1c0.7-1.1,1.6-2.1,2.8-3c1.2-0.8,2.7-1.3,4.5-1.3c0.3,0,0.5,0,0.8,0
				c0.3,0,0.5,0,0.7,0.1c0.1,0.3,0.1,0.6,0.2,1c0,0.3,0.1,0.7,0.1,1.1c0,0.4,0,0.8-0.1,1.3c-0.1,0.4-0.1,0.9-0.2,1.3
				c-0.3-0.1-0.6-0.1-0.8-0.1c-0.3,0-0.5,0-0.7,0c-0.9,0-1.8,0.1-2.6,0.4c-0.8,0.3-1.6,0.7-2.2,1.3c-0.7,0.6-1.2,1.5-1.6,2.6
				c-0.4,1.1-0.6,2.6-0.6,4.3v12.9c-0.4,0.1-0.8,0.1-1.2,0.2c-0.5,0-0.9,0.1-1.2,0.1c-0.4,0-0.8,0-1.2-0.1c-0.5,0-0.9-0.1-1.3-0.2
				V37.8z"/>
			<path class="st1" d="M171.2,52.1c0.1,2.8,0.8,4.9,2.2,6.2c1.4,1.3,3.5,2,6.2,2c2.4,0,4.7-0.4,6.9-1.3c0.3,0.5,0.5,1.1,0.7,1.9
				c0.2,0.7,0.3,1.4,0.3,2.2c-1.1,0.5-2.3,0.8-3.7,1.1c-1.3,0.2-2.8,0.4-4.4,0.4c-2.4,0-4.4-0.3-6.1-1c-1.7-0.7-3.1-1.6-4.2-2.8
				c-1.1-1.2-1.9-2.6-2.4-4.3c-0.5-1.6-0.8-3.4-0.8-5.4c0-1.9,0.2-3.7,0.7-5.4c0.5-1.7,1.2-3.1,2.3-4.4c1-1.2,2.3-2.2,3.8-2.9
				c1.5-0.7,3.4-1.1,5.5-1.1c1.8,0,3.4,0.3,4.7,0.9c1.4,0.6,2.5,1.4,3.4,2.5s1.6,2.3,2.1,3.8c0.5,1.5,0.7,3.1,0.7,4.8
				c0,0.5,0,1-0.1,1.5c0,0.5-0.1,1-0.1,1.3H171.2z M184.1,48.3c0-0.9-0.1-1.9-0.4-2.7c-0.3-0.9-0.6-1.6-1.1-2.3
				c-0.5-0.6-1.1-1.2-1.9-1.5c-0.8-0.4-1.7-0.6-2.7-0.6c-2.1,0-3.6,0.6-4.7,1.9c-1.1,1.3-1.8,3-2,5.2H184.1z"/>
			<path class="st1" d="M198.5,52.1c0.1,2.8,0.8,4.9,2.2,6.2c1.4,1.3,3.5,2,6.2,2c2.4,0,4.7-0.4,6.9-1.3c0.3,0.5,0.5,1.1,0.7,1.9
				c0.2,0.7,0.3,1.4,0.3,2.2c-1.1,0.5-2.3,0.8-3.7,1.1c-1.3,0.2-2.8,0.4-4.4,0.4c-2.4,0-4.4-0.3-6.1-1s-3.1-1.6-4.2-2.8
				c-1.1-1.2-1.9-2.6-2.4-4.3c-0.5-1.6-0.8-3.4-0.8-5.4c0-1.9,0.2-3.7,0.7-5.4c0.5-1.7,1.2-3.1,2.3-4.4c1-1.2,2.3-2.2,3.8-2.9
				c1.5-0.7,3.4-1.1,5.5-1.1c1.8,0,3.4,0.3,4.7,0.9c1.4,0.6,2.5,1.4,3.4,2.5s1.6,2.3,2.1,3.8c0.5,1.5,0.7,3.1,0.7,4.8
				c0,0.5,0,1-0.1,1.5c0,0.5-0.1,1-0.1,1.3H198.5z M211.4,48.3c0-0.9-0.1-1.9-0.4-2.7c-0.3-0.9-0.6-1.6-1.1-2.3
				c-0.5-0.6-1.1-1.2-1.9-1.5c-0.8-0.4-1.7-0.6-2.7-0.6c-2.1,0-3.6,0.6-4.7,1.9c-1.1,1.3-1.8,3-2,5.2H211.4z"/>
			<path class="st1" d="M236.5,64.5c-2.6,0-4.9-0.5-6.9-1.4c-1.9-0.9-3.5-2.2-4.8-3.9c-1.3-1.7-2.2-3.7-2.8-6
				c-0.6-2.3-0.9-4.8-0.9-7.6c0-2.7,0.3-5.3,0.9-7.6c0.6-2.3,1.6-4.3,2.8-6s2.9-3,4.8-3.9c1.9-0.9,4.2-1.4,6.9-1.4
				c2.6,0,4.9,0.5,6.9,1.4c1.9,0.9,3.5,2.3,4.8,3.9c1.3,1.7,2.2,3.7,2.8,6c0.6,2.3,0.9,4.8,0.9,7.6c0,2.7-0.3,5.3-0.9,7.6
				c-0.6,2.3-1.5,4.3-2.8,6c-1.3,1.7-2.9,3-4.8,3.9C241.4,64,239.1,64.5,236.5,64.5z M236.5,60c1.7,0,3.2-0.3,4.4-1
				c1.2-0.7,2.3-1.6,3.1-2.9c0.8-1.3,1.4-2.8,1.8-4.5c0.4-1.8,0.6-3.8,0.6-6c0-2.2-0.2-4.2-0.6-6c-0.4-1.8-1-3.3-1.8-4.5
				c-0.8-1.2-1.8-2.2-3.1-2.8c-1.2-0.7-2.7-1-4.4-1s-3.2,0.3-4.4,1c-1.2,0.7-2.3,1.6-3.1,2.8c-0.8,1.2-1.4,2.7-1.8,4.5
				s-0.6,3.8-0.6,6c0,2.2,0.2,4.2,0.6,6s1,3.3,1.8,4.5c0.8,1.3,1.8,2.2,3.1,2.9C233.3,59.7,234.8,60,236.5,60z"/>
			<path class="st1" d="M275.8,36c0-3.2,1-5.7,2.9-7.3s4.5-2.5,7.9-2.5c1.4,0,2.6,0.1,3.7,0.3c1.1,0.2,2.3,0.5,3.7,1
				c0,0.8-0.1,1.5-0.4,2.2c-0.2,0.7-0.5,1.3-0.8,1.9c-1-0.4-2-0.7-2.8-0.9c-0.8-0.2-1.8-0.3-3-0.3c-0.9,0-1.7,0.1-2.4,0.2
				c-0.7,0.2-1.4,0.4-1.9,0.9c-0.5,0.4-1,1-1.3,1.8c-0.3,0.8-0.5,1.7-0.5,2.9v1.7h15.7v26c-0.4,0.1-0.8,0.1-1.2,0.2
				c-0.5,0-0.9,0.1-1.2,0.1c-0.4,0-0.8,0-1.2-0.1c-0.5,0-0.9-0.1-1.2-0.2V41.8h-10.7v22.1c-0.4,0.1-0.8,0.1-1.2,0.2
				c-0.5,0-0.9,0.1-1.2,0.1c-0.4,0-0.8,0-1.3-0.1c-0.5,0-0.9-0.1-1.3-0.2V41.8h-11v22.1c-0.4,0.1-0.8,0.1-1.2,0.2
				c-0.5,0-0.9,0.1-1.2,0.1s-0.8,0-1.3-0.1c-0.5,0-0.9-0.1-1.3-0.2V41.8h-4.3c-0.1-0.5-0.2-1.2-0.2-2c0-0.7,0.1-1.4,0.2-2h4.3v-1.6
				c0-3.2,0.8-5.7,2.4-7.3s3.9-2.5,6.9-2.5c0.9,0,1.7,0.1,2.4,0.2c0.7,0.1,1.4,0.3,2,0.4c-0.1,0.9-0.3,1.6-0.5,2.2
				c-0.2,0.6-0.5,1.2-0.8,1.8c-0.3-0.1-0.7-0.2-1.1-0.3c-0.4-0.1-1-0.1-1.6-0.1c-0.7,0-1.4,0.1-2,0.2c-0.6,0.2-1.1,0.4-1.5,0.9
				c-0.4,0.4-0.7,1-0.9,1.8c-0.2,0.7-0.3,1.7-0.3,2.9v1.4h11V36z"/>
			<path class="st1" d="M320.9,59.3c0.3,0.5,0.5,1.1,0.7,1.8s0.3,1.4,0.4,2.2c-2,0.8-4.3,1.2-6.9,1.2c-4.3,0-7.6-1.2-9.8-3.7
				c-2.2-2.5-3.3-5.8-3.3-9.9c0-1.9,0.3-3.7,0.8-5.4c0.5-1.7,1.3-3.1,2.4-4.3c1.1-1.2,2.4-2.2,4-2.9c1.6-0.7,3.4-1.1,5.5-1.1
				c1.4,0,2.7,0.1,3.8,0.3c1.1,0.2,2.1,0.4,3.1,0.8c0,0.6-0.1,1.2-0.2,2c-0.2,0.8-0.4,1.4-0.6,2c-1.7-0.6-3.6-0.9-5.7-0.9
				c-2.6,0-4.6,0.9-5.8,2.6c-1.3,1.7-1.9,4-1.9,6.9c0,3.2,0.7,5.6,2.2,7.1c1.5,1.5,3.5,2.3,6,2.3c1,0,2-0.1,2.8-0.2
				C319.2,59.9,320,59.7,320.9,59.3z"/>
			<path class="st1" d="M329.8,52.1c0.1,2.8,0.8,4.9,2.2,6.2c1.4,1.3,3.5,2,6.2,2c2.4,0,4.7-0.4,6.9-1.3c0.3,0.5,0.5,1.1,0.7,1.9
				c0.2,0.7,0.3,1.4,0.3,2.2c-1.1,0.5-2.3,0.8-3.7,1.1c-1.3,0.2-2.8,0.4-4.4,0.4c-2.4,0-4.4-0.3-6.1-1s-3.1-1.6-4.2-2.8
				c-1.1-1.2-1.9-2.6-2.4-4.3c-0.5-1.6-0.8-3.4-0.8-5.4c0-1.9,0.2-3.7,0.7-5.4c0.5-1.7,1.2-3.1,2.3-4.4c1-1.2,2.3-2.2,3.8-2.9
				c1.5-0.7,3.4-1.1,5.5-1.1c1.8,0,3.4,0.3,4.7,0.9c1.4,0.6,2.5,1.4,3.4,2.5s1.6,2.3,2.1,3.8c0.5,1.5,0.7,3.1,0.7,4.8
				c0,0.5,0,1-0.1,1.5c0,0.5-0.1,1-0.1,1.3H329.8z M342.7,48.3c0-0.9-0.1-1.9-0.4-2.7c-0.3-0.9-0.6-1.6-1.1-2.3
				c-0.5-0.6-1.1-1.2-1.9-1.5c-0.8-0.4-1.7-0.6-2.7-0.6c-2.1,0-3.6,0.6-4.7,1.9c-1.1,1.3-1.8,3-2,5.2H342.7z"/>
		</g>
		<g>
			<g class="st0">
				<path class="st1" d="M155,30.7c0.1,0,0.2,0.1,0.4,0.1c0.1,0,0.3,0.1,0.4,0.1c0.2,0,0.3,0.1,0.5,0.1c0.2,0,0.4,0,0.7,0
					c0.4,0,0.7,0,1-0.1s0.5-0.2,0.7-0.4c0.2-0.2,0.3-0.4,0.4-0.6s0.1-0.5,0.1-0.7c0-0.3,0-0.5-0.1-0.6c-0.1-0.2-0.2-0.3-0.3-0.5
					c-0.2-0.2-0.4-0.3-0.6-0.4s-0.6-0.3-1-0.4c-0.3-0.1-0.6-0.2-0.8-0.4s-0.5-0.3-0.7-0.5s-0.4-0.4-0.5-0.6
					c-0.1-0.3-0.2-0.6-0.2-0.9c0-0.7,0.2-1.2,0.7-1.7s1.2-0.6,2.1-0.6c0.2,0,0.4,0,0.6,0c0.2,0,0.4,0,0.5,0.1c0.2,0,0.3,0.1,0.5,0.1
					c0.1,0,0.2,0.1,0.3,0.1c0,0.1,0,0.3-0.1,0.4c0,0.1-0.1,0.3-0.1,0.4c-0.2-0.1-0.5-0.1-0.8-0.2c-0.3-0.1-0.6-0.1-0.9-0.1
					c-0.7,0-1.2,0.1-1.5,0.4c-0.3,0.3-0.5,0.6-0.5,1.1c0,0.2,0,0.4,0.1,0.6c0.1,0.2,0.2,0.3,0.4,0.4c0.2,0.1,0.4,0.2,0.6,0.3
					c0.2,0.1,0.5,0.2,0.7,0.3c0.4,0.1,0.7,0.3,1,0.4c0.3,0.2,0.6,0.3,0.8,0.5s0.4,0.4,0.5,0.7s0.2,0.6,0.2,1c0,0.4-0.1,0.8-0.2,1.2
					c-0.2,0.3-0.4,0.6-0.7,0.9c-0.3,0.2-0.6,0.4-1,0.5c-0.4,0.1-0.9,0.2-1.4,0.2c-0.5,0-0.9,0-1.2-0.1c-0.3-0.1-0.6-0.2-0.9-0.2
					c0-0.1,0-0.3,0.1-0.4C154.9,31,155,30.8,155,30.7z"/>
				<path class="st1" d="M164.5,31.9c-0.5,0-0.9-0.1-1.3-0.3s-0.7-0.4-0.9-0.7c-0.2-0.3-0.4-0.7-0.5-1.1c-0.1-0.4-0.2-0.9-0.2-1.3
					c0-0.5,0.1-0.9,0.2-1.3c0.1-0.4,0.3-0.8,0.5-1.1c0.2-0.3,0.5-0.5,0.9-0.7s0.8-0.3,1.3-0.3c0.5,0,0.9,0.1,1.3,0.3
					c0.4,0.2,0.7,0.4,0.9,0.7c0.2,0.3,0.4,0.7,0.5,1.1c0.1,0.4,0.2,0.9,0.2,1.3c0,0.5-0.1,0.9-0.2,1.3c-0.1,0.4-0.3,0.8-0.5,1.1
					c-0.2,0.3-0.5,0.5-0.9,0.7C165.4,31.8,165,31.9,164.5,31.9z M164.5,31.1c0.7,0,1.2-0.2,1.5-0.7c0.3-0.5,0.5-1.1,0.5-1.9
					c0-0.8-0.2-1.5-0.5-1.9c-0.3-0.5-0.8-0.7-1.5-0.7c-0.7,0-1.2,0.2-1.5,0.7c-0.3,0.5-0.5,1.1-0.5,1.9c0,0.8,0.2,1.5,0.5,1.9
					C163.3,30.9,163.9,31.1,164.5,31.1z"/>
				<path class="st1" d="M173.2,26h-2.7v5.7c-0.1,0-0.1,0-0.2,0c-0.1,0-0.2,0-0.2,0c0,0-0.1,0-0.2,0c-0.1,0-0.2,0-0.2,0V26h-1.1
					c0,0,0-0.1,0-0.2c0-0.1,0-0.1,0-0.2c0-0.1,0-0.1,0-0.2c0-0.1,0-0.1,0-0.2h1.1v-0.6c0-0.8,0.2-1.4,0.5-1.8
					c0.3-0.4,0.9-0.6,1.7-0.6c0.2,0,0.3,0,0.5,0s0.3,0,0.4,0.1c0,0.2,0,0.3-0.1,0.4s0,0.2-0.1,0.3c-0.1,0-0.2,0-0.3-0.1
					c-0.1,0-0.3,0-0.4,0c-0.2,0-0.4,0-0.6,0.1c-0.2,0-0.3,0.1-0.4,0.3s-0.2,0.3-0.3,0.5s-0.1,0.5-0.1,0.8v0.5h2.7v-1.2l0.8-0.8h0.1
					v2h1.7c0,0,0,0.1,0,0.2s0,0.1,0,0.2c0,0.1,0,0.1,0,0.2c0,0.1,0,0.1,0,0.2H174v4.2c0,0.2,0,0.4,0.1,0.5c0.1,0.1,0.1,0.2,0.2,0.3
					c0.1,0.1,0.2,0.1,0.3,0.1c0.1,0,0.2,0,0.3,0c0.3,0,0.5,0,0.8-0.1c0.1,0.2,0.1,0.5,0.1,0.7c-0.3,0.1-0.7,0.1-1.1,0.1
					c-0.5,0-0.9-0.1-1.2-0.4c-0.3-0.3-0.4-0.7-0.4-1.3V26z"/>
				<path class="st1" d="M177.6,22.7c0.1,0,0.1,0,0.2,0c0.1,0,0.2,0,0.3,0s0.2,0,0.3,0c0.1,0,0.2,0,0.3,0l2.5,6l2.5-6
					c0.1,0,0.1,0,0.2,0c0.1,0,0.2,0,0.3,0s0.2,0,0.3,0c0.1,0,0.2,0,0.3,0l0.4,9c-0.1,0-0.1,0-0.2,0c-0.1,0-0.2,0-0.2,0
					c-0.1,0-0.2,0-0.2,0c-0.1,0-0.1,0-0.2,0L184,24l-2.5,5.8c-0.1,0-0.1,0-0.2,0s-0.1,0-0.2,0s-0.1,0-0.2,0s-0.1,0-0.2,0l-2.5-5.8
					l-0.4,7.7c-0.1,0-0.1,0-0.2,0c-0.1,0-0.2,0-0.2,0c-0.1,0-0.2,0-0.2,0c-0.1,0-0.1,0-0.2,0L177.6,22.7z"/>
				<path class="st1" d="M190.9,27.5c0-0.6-0.1-1-0.4-1.2c-0.3-0.3-0.6-0.4-1.2-0.4c-0.3,0-0.6,0-0.9,0.1c-0.3,0-0.5,0.1-0.7,0.2
					c0-0.1-0.1-0.2-0.1-0.3s0-0.3,0-0.4c0.2-0.1,0.5-0.1,0.8-0.2c0.3,0,0.6-0.1,1-0.1c0.8,0,1.4,0.2,1.8,0.5
					c0.4,0.4,0.6,0.9,0.6,1.7v4.2c-0.3,0.1-0.7,0.1-1.1,0.2c-0.4,0.1-0.8,0.1-1.2,0.1c-0.8,0-1.4-0.2-1.8-0.5s-0.7-0.8-0.7-1.5
					c0-0.3,0.1-0.6,0.2-0.9c0.1-0.3,0.3-0.5,0.5-0.7c0.2-0.2,0.5-0.3,0.8-0.4s0.7-0.1,1.1-0.1c0.3,0,0.6,0,0.8,0
					c0.2,0,0.4,0,0.5,0.1V27.5z M190.9,28.6c-0.1,0-0.3,0-0.5-0.1s-0.4,0-0.6,0c-0.6,0-1.1,0.1-1.5,0.4c-0.3,0.2-0.5,0.6-0.5,1
					c0,0.3,0.1,0.5,0.2,0.7c0.1,0.2,0.2,0.3,0.4,0.4c0.2,0.1,0.4,0.1,0.6,0.2c0.2,0,0.4,0,0.6,0c0.3,0,0.5,0,0.7,0
					c0.2,0,0.4-0.1,0.7-0.1V28.6z"/>
				<path class="st1" d="M193.9,22.5c0,0,0.1,0,0.2,0c0.1,0,0.2,0,0.2,0c0,0,0.1,0,0.2,0c0.1,0,0.2,0,0.2,0v9.2c0,0-0.1,0-0.2,0
					c-0.1,0-0.2,0-0.2,0c0,0-0.1,0-0.2,0c-0.1,0-0.2,0-0.2,0V22.5z M195.2,28.4l2.3-3.1c0.1,0,0.3,0,0.4,0c0.2,0,0.4,0,0.5,0l-2.3,3
					l2.7,3.4c-0.2,0-0.3,0-0.5,0c-0.2,0-0.4,0-0.5,0L195.2,28.4z"/>
				<path class="st1" d="M200.5,28.6c0,0.9,0.2,1.5,0.6,1.9c0.4,0.4,1,0.6,1.8,0.6c0.3,0,0.6,0,0.9-0.1s0.5-0.1,0.8-0.2
					c0,0.1,0.1,0.2,0.1,0.3c0,0.1,0,0.3,0.1,0.4c-0.2,0.1-0.5,0.2-0.9,0.2c-0.3,0.1-0.7,0.1-1.1,0.1c-0.6,0-1-0.1-1.4-0.2
					s-0.7-0.4-1-0.7c-0.3-0.3-0.4-0.6-0.6-1.1c-0.1-0.4-0.2-0.9-0.2-1.3c0-0.5,0.1-0.9,0.2-1.3s0.3-0.8,0.5-1.1
					c0.2-0.3,0.5-0.6,0.9-0.7c0.4-0.2,0.8-0.3,1.3-0.3c0.4,0,0.8,0.1,1.1,0.2s0.6,0.3,0.8,0.6c0.2,0.3,0.4,0.6,0.5,0.9
					c0.1,0.4,0.2,0.7,0.2,1.2c0,0.1,0,0.2,0,0.3c0,0.1,0,0.2,0,0.3H200.5z M204.2,27.9c0-0.3,0-0.5-0.1-0.8
					c-0.1-0.3-0.2-0.5-0.3-0.7c-0.1-0.2-0.3-0.3-0.6-0.5c-0.2-0.1-0.5-0.2-0.8-0.2c-0.6,0-1,0.2-1.4,0.5c-0.3,0.4-0.5,0.9-0.6,1.5
					H204.2z"/>
				<path class="st1" d="M206.9,25.3c0.1,0,0.1,0,0.2,0c0.1,0,0.1,0,0.2,0c0.1,0,0.1,0,0.2,0c0.1,0,0.1,0,0.2,0c0,0.2,0,0.3,0,0.5
					c0,0.2,0,0.4,0,0.6c0.2-0.3,0.4-0.6,0.7-0.8s0.7-0.3,1.2-0.3c0,0,0.1,0,0.1,0c0,0,0.1,0,0.2,0c0,0.1,0,0.3,0,0.4
					c0,0.1,0,0.3,0,0.4c-0.1,0-0.1,0-0.2,0c0,0-0.1,0-0.1,0c-0.6,0-1,0.2-1.4,0.5c-0.3,0.4-0.5,1-0.5,1.8v3.3c0,0-0.1,0-0.2,0
					c-0.1,0-0.2,0-0.2,0c0,0-0.1,0-0.2,0c-0.1,0-0.2,0-0.2,0V25.3z"/>
			</g>
		</g>
	</g>
	<g>
		
			<linearGradient id="SVGID_1_" gradientUnits="userSpaceOnUse" x1="61.6528" y1="8.523" x2="110.9511" y2="62.972" gradientTransform="matrix(1 0 0 -1 0 85.2756)">
			<stop  offset="0" style="stop-color:#8ABE42"/>
			<stop  offset="0.3032" style="stop-color:#88BB41"/>
			<stop  offset="0.5003" style="stop-color:#82B33F"/>
			<stop  offset="0.6672" style="stop-color:#78A43B"/>
			<stop  offset="0.8172" style="stop-color:#6A8F36"/>
			<stop  offset="0.9548" style="stop-color:#58742F"/>
			<stop  offset="1" style="stop-color:#51692C"/>
		</linearGradient>
		<path class="st2" d="M110.9,25.2c-29.9,0-54.2,24.3-54.2,54.2C86.6,79.4,110.9,55.1,110.9,25.2z"/>
		
			<linearGradient id="SVGID_00000022555127771681172930000003365649158040609164_" gradientUnits="userSpaceOnUse" x1="91.3612" y1="92.18" x2="48.6851" y2="11.9782" gradientTransform="matrix(1 0 0 -1 0 85.2756)">
			<stop  offset="0" style="stop-color:#FCD911"/>
			<stop  offset="0.2492" style="stop-color:#FBD514"/>
			<stop  offset="0.4968" style="stop-color:#F9C91C"/>
			<stop  offset="0.7438" style="stop-color:#F4B529"/>
			<stop  offset="0.989" style="stop-color:#EE993B"/>
			<stop  offset="1" style="stop-color:#EE983C"/>
		</linearGradient>
		<path style="fill:url(#SVGID_00000022555127771681172930000003365649158040609164_);" d="M74,4.7C48.6,20.6,40.8,54,56.6,79.4
			C82,63.5,89.9,30.2,74,4.7z"/>
		
			<linearGradient id="SVGID_00000143615180619797229200000008274211097536042941_" gradientUnits="userSpaceOnUse" x1="56.3247" y1="19.64" x2="34.9866" y2="79.2395" gradientTransform="matrix(1 0 0 -1 0 85.2756)">
			<stop  offset="0" style="stop-color:#FCC838"/>
			<stop  offset="0.2819" style="stop-color:#F8B138"/>
			<stop  offset="0.8698" style="stop-color:#EE7737"/>
			<stop  offset="1" style="stop-color:#EC6937"/>
		</linearGradient>
		<path style="fill:url(#SVGID_00000143615180619797229200000008274211097536042941_);" d="M39.2,4.7C64.6,20.6,72.4,54,56.6,79.4
			C31.1,63.5,23.4,30.2,39.2,4.7z"/>
		
			<linearGradient id="SVGID_00000003075022779427100370000010271356554362756256_" gradientUnits="userSpaceOnUse" x1="46.2015" y1="11.8832" x2="4.261" y2="64.8605" gradientTransform="matrix(1 0 0 -1 0 85.2756)">
			<stop  offset="0" style="stop-color:#EA5857"/>
			<stop  offset="0.1629" style="stop-color:#E35453"/>
			<stop  offset="0.3913" style="stop-color:#D14947"/>
			<stop  offset="0.6585" style="stop-color:#B33634"/>
			<stop  offset="0.9529" style="stop-color:#8A1C1A"/>
			<stop  offset="0.9973" style="stop-color:#831816"/>
		</linearGradient>
		<path style="fill:url(#SVGID_00000003075022779427100370000010271356554362756256_);" d="M2.4,25.2c0,29.9,24.3,54.2,54.2,54.2
			C56.6,49.4,32.3,25.2,2.4,25.2z"/>
	</g>
</g>
</svg>
