<svg role="img" viewBox="0 0 42 49" fill="none" xmlns="http://www.w3.org/2000/svg">
  <title>kMeet</title>
  <path d="M14.6163 0.924663L40.1607 8.78449C41.1351 9.0843 41.8 9.98456 41.8 11.004V32.8503C41.8 34.1328 40.7603 35.1725 39.4778 35.1725C39.2463 35.1725 39.0161 35.1379 38.7948 35.0698L13.2504 27.21C12.276 26.9101 11.6111 26.0099 11.6111 24.9904V3.14419C11.6111 1.86167 12.6508 0.821972 13.9333 0.821972C14.1648 0.821972 14.395 0.856585 14.6163 0.924663Z" fill="#3DBD86" opacity="0.289597"/>
  <path d="M8.81071 4.64022L34.3552 12.5C35.3295 12.7999 35.9944 13.7001 35.9944 14.7196V36.5658C35.9944 37.8483 34.9548 38.888 33.6722 38.888C33.4407 38.888 33.2105 38.8534 32.9893 38.7853L7.44485 30.9255C6.47046 30.6257 5.80556 29.7254 5.80556 28.706V6.85975C5.80556 5.57722 6.84525 4.53753 8.12778 4.53753C8.35927 4.53753 8.58946 4.57214 8.81071 4.64022Z" fill="#83D5B1" opacity="0.800316"/>
  <path d="M3.00515 9.28466L28.5496 17.1445C29.524 17.4443 30.1889 18.3446 30.1889 19.364V41.2185C30.1889 42.501 29.1492 43.5407 27.8667 43.5407C27.6371 43.5407 27.4088 43.5067 27.1893 43.4397L20.3194 41.3447V47.268C20.3194 47.9093 19.7996 48.4292 19.1583 48.4292C18.7856 48.4292 18.4356 48.2503 18.2173 47.9482L11.8339 39.1164C11.6892 38.9162 11.4843 38.7673 11.2491 38.6915L1.6098 35.5844C0.650352 35.2752 0 34.3823 0 33.3742V11.5042C0 10.2217 1.03969 9.18197 2.32222 9.18197C2.55371 9.18197 2.7839 9.21659 3.00515 9.28466Z" fill="#3DBD86"/>
  <path d="M17.1483 20.7279C17.6951 20.8863 18.1383 21.4522 18.1383 21.992V32.7434C18.1383 33.2832 17.6951 33.5924 17.1483 33.4341L6.49 30.3476C5.94324 30.1893 5.5 29.6233 5.5 29.0835V18.3322C5.5 17.7924 5.94324 17.4831 6.49 17.6414L17.1483 20.7279ZM22.8879 23.1121C23.0186 23.074 23.1739 23.1272 23.2982 23.2524C23.4225 23.3776 23.4981 23.5571 23.4979 23.7266V34.193C23.4979 34.3624 23.4222 34.4978 23.2979 34.5509C23.1736 34.6039 23.0185 34.567 22.8879 34.4532L17.8326 30.3421C17.69 30.218 17.6 30.0228 17.6 29.8379V24.9509C17.5997 24.7655 17.6897 24.622 17.8326 24.5803L22.8879 23.1121Z" fill="#fff" fill-rule="nonzero"/>
</svg>
