<svg xmlns="http://www.w3.org/2000/svg" role="img" viewBox="0 0 48 24" aria-labelledby="lineageosTitle">
  <title id="lineageosTitle">LineageOS</title>
  <path fill="#e0e0e0" d="M40 12a4 4 0 0 0-3 1.33l-.23-.09A29.62 29.62 0 0 0 32 11.81h0a8 8 0 0 0-16 0l-.22 0a29.53 29.53 0 0 0-4.6 1.39l-.23.09a4 4 0 1 0 .93 1.78h0a27.62 27.62 0 0 1 4.29-1.29 8 8 0 0 0 15.57 0 27.55 27.55 0 0 1 4.29 1.28h0A4 4 0 1 0 40 12ZM8 18a2 2 0 1 1 2-2 2 2 0 0 1-2 2Zm16 0a6 6 0 1 1 6-6 6 6 0 0 1-6 6Zm16 0a2 2 0 1 1 2-2 2 2 0 0 1-2 2Zm-13-6a3 3 0 1 1-3-3 3 3 0 0 1 3 3Z"/>
</svg>
