<svg width="125" height="28" viewBox="0 0 125 28" fill="none" xmlns="http://www.w3.org/2000/svg">
  <path d="M108.454 7.87741C108.783 7.66281 109.262 7.81239 109.596 7.93503C110.072 8.10674 110.5 8.31265 110.832 8.73581C111.122 9.10671 111.312 9.56676 111.501 10.0112C111.725 10.5478 111.968 11.0727 112.204 11.6001C112.383 12.0168 112.559 12.4307 112.715 12.8628C112.876 13.3165 113.151 14.1756 113.672 14.2524C114.111 14.3137 114.374 13.7402 114.593 13.4243C115.346 12.3389 116.199 11.318 117.048 10.3276C117.526 9.77566 118.029 9.25994 118.588 8.80612C119.242 8.27275 120.109 7.76425 120.946 7.81003C121.293 7.82843 121.691 7.97273 121.996 8.15671C122.322 8.34979 122.471 8.51492 122.728 8.80905C122.97 9.08502 123.109 9.49045 123.282 9.82468C123.485 10.1988 123.551 10.8666 123.662 11.2866C123.961 13.1538 123.96 13.7645 123.948 15.561C123.885 16.7845 123.957 18.0026 123.877 19.226C123.841 19.7503 123.805 20.272 123.805 20.7993C123.826 22.0745 124.145 22.4395 124.238 23.7026C124.265 24.0583 124.295 24.4262 124.235 24.7788C124.205 24.9474 124.173 25.1287 124.101 25.2758C123.751 25.9842 122.749 26.1529 122.202 25.6469C121.742 25.2208 121.428 24.589 121.249 23.979C121.048 23.2614 120.976 23.3653 120.827 22.6294C120.758 22.2737 120.695 21.9177 120.633 21.562L120.51 20.811C120.423 20.2806 120.33 19.7498 120.253 19.2163C120.058 17.7783 120.002 16.3219 119.849 14.8901C119.816 14.5896 119.735 14.1721 119.388 14.1782C118.988 14.1846 118.668 14.7608 118.423 15.0551C118.046 15.5151 117.661 15.9693 117.284 16.4292C116.928 16.8584 116.581 17.2998 116.237 17.726C115.741 18.3516 114.948 19.5169 114.066 19.0171C113.555 18.7318 113.268 18.0638 112.951 17.561C112.664 17.0949 112.386 16.6288 112.072 16.1811C111.908 15.942 111.483 15.258 111.139 15.4936C110.855 15.6898 110.816 16.1008 110.703 16.4135C110.562 16.7846 110.38 17.1379 110.252 17.5151C110.048 18.0946 109.814 18.6679 109.611 19.2505C109.336 20.0476 109.089 20.8541 108.846 21.6635C108.577 22.5619 108.346 22.8132 108.009 23.687C107.826 24.1439 107.533 24.696 107.133 24.9536C106.63 25.2754 106.089 24.8922 105.769 24.4507C105.333 23.8497 105.165 23.037 105.234 22.2827C105.305 21.5583 105.506 21.3457 105.721 20.7798L105.811 20.5171C106.622 18.4166 107.384 15.1134 107.608 13.6538C107.814 12.6604 107.871 11.6177 107.967 10.6059C108.002 10.1861 108.045 9.78162 108.072 9.36179C108.099 8.89279 108.015 8.16584 108.454 7.87741ZM55.9685 7.94772C56.5634 7.30405 57.1042 7.71513 57.0085 8.64108C56.9159 9.53647 56.85 10.9685 56.865 11.5327C57.0657 15.6165 65.1954 12.3791 67.0583 9.8862C68.7057 7.71229 69.5097 7.78531 69.7878 8.78171C70.033 9.66481 69.8655 11.2719 69.5007 12.6762C69.2137 13.7769 68.7474 14.9726 67.7908 15.7085C66.8728 16.4168 63.8195 18.1369 60.5544 18.1216C60.8654 19.9307 60.5847 23.4516 60.5847 23.4516C60.1422 26.8763 59.0033 25.8425 58.6326 25.5512C57.7154 25.0223 57.336 22.7984 57.2038 21.7192L57.1433 21.1235C57.1365 21.077 56.5127 16.8015 56.4949 16.4721C55.7952 16.1839 54.9132 14.7731 54.7517 13.2798C54.4737 10.7073 54.7905 9.22019 55.9685 7.94772ZM83.0242 8.5737C84.7494 7.88991 86.9143 7.15991 88.7322 7.8989C89.7516 8.30976 90.7022 9.40094 90.0867 10.52C89.6053 11.3969 88.6397 11.4984 87.7488 11.5444C84.1848 11.7222 81.3263 13.7248 79.5144 16.7358C79.1885 17.2754 78.8801 18.0329 79.2058 18.643C79.6662 19.5046 81.2659 19.9586 82.1091 20.02C82.9642 20.1672 84.2381 20.1668 85.4968 19.9184C86.2776 19.7425 87.9214 19.4426 89.4988 17.7651C89.5108 17.5619 89.531 17.3677 89.5662 17.1899C89.7426 16.3007 90.0717 15.1968 90.5232 14.4516C91.4082 12.989 92.7151 11.5601 93.9949 10.5942C95.6065 9.37996 97.8967 7.85601 99.864 7.94186L100.058 7.95749C104.128 8.3014 107.117 13.7242 105.775 18.104C105.252 19.8149 104.381 21.6762 102.928 22.7954C100.785 24.445 97.5884 25.2353 95.0798 24.5883C94.2876 24.3829 93.4565 24.0276 92.739 23.5708C91.9306 23.0565 91.067 22.4072 90.448 21.5483C90.3064 21.7454 90.1653 21.9205 90.0242 22.0591C89.0346 23.031 88.0535 23.6931 86.8816 24.104C85.7304 24.5057 84.4979 24.7084 83.2839 24.8188C79.4779 25.1589 76.9158 21.9297 76.3806 18.4956C76.007 16.0947 77.0026 13.4916 78.5095 11.6274C79.6756 10.1925 81.32 9.24828 83.0242 8.5737ZM30.1228 7.43893C30.1946 7.06484 30.7387 6.8438 31.1423 7.15964C31.8244 7.69098 35.0799 13.5702 35.3972 14.0708C36.333 15.5424 36.5 15.5802 37.5701 15.5649C37.8332 15.5618 40.9224 15.5092 43.5476 15.4663C43.6732 13.5591 43.9066 12.8015 44.654 12.6421C45.4584 12.4707 46.6629 13.3941 47.4373 15.393C48.5196 15.3225 50.6422 15.2548 50.8787 14.2553C51.4079 12.0078 40.1186 9.39214 37.8308 11.6762C36.6408 12.8629 34.7213 9.27543 35.696 8.67136C39.6995 6.18483 46.6925 7.92948 50.5496 9.80905C54.2834 11.6271 54.6975 15.3099 53.8035 16.5835L53.7107 16.6987C52.123 18.5109 47.0939 17.9598 47.1687 18.8276C47.2198 19.4182 47.7632 23.4942 46.9802 24.2485C46.1968 25.0028 46.2595 24.7572 44.5671 23.7299C43.4549 23.0553 43.2965 20.8724 43.3533 18.8149C41.2934 18.9927 39.1168 19.2474 38.949 19.2934C38.6829 19.3701 38.2791 19.382 38.0847 19.6118C37.8306 19.9123 37.9745 20.4034 38.1121 20.7192C38.2794 21.0992 38.4647 21.4853 38.656 21.8501C39.0118 22.5277 39.4483 23.3133 39.2898 24.1167C39.1822 24.6623 38.8771 24.9721 38.3064 24.7456C37.7323 24.5156 34.5142 20.673 34.1345 20.351C33.8145 20.0785 33.0946 20.1579 32.697 20.1977C31.6596 20.302 28.5594 20.5532 28.0505 20.5962C26.6213 20.7127 26.6866 21.0132 25.6521 22.5678C25.4189 22.9173 24.427 24.9927 24.3191 24.7085C24.1307 24.2057 23.1587 23.7058 23.1374 22.9272C23.1165 22.1515 23.5535 21.6055 23.7419 21.2866C23.9512 20.9309 24.0018 20.2467 23.6101 20.1548C23.2186 20.0627 23.2515 19.511 23.2634 19.186C23.2784 18.7752 23.3381 18.3337 23.4128 17.9106C23.4995 17.414 23.649 16.9538 24.1599 16.8217C24.5694 16.7145 25.0092 16.7729 25.4187 16.6596C25.8702 16.5339 26.0112 16.202 26.2205 15.8003C26.3721 15.5077 29.9401 8.402 30.1228 7.43893ZM70.4929 19.9712C70.9862 19.5664 71.7101 19.4435 72.3201 19.56C72.9928 19.6888 73.6628 20.3635 73.905 21.0258C73.9977 21.2834 74.0334 21.6118 74.0124 21.9428C73.9705 22.5652 73.6656 23.0989 73.2351 23.5219C72.3381 24.4018 70.7299 24.4013 69.9675 23.3159C69.519 22.675 69.4887 21.5991 69.7937 20.8755C69.9342 20.5475 70.2239 20.192 70.4929 19.9712ZM101.442 12.9673C100.426 11.9373 98.9369 11.9399 97.7351 12.4487C96.6288 12.9148 95.4624 13.4027 94.6013 14.393C93.9914 15.0952 93.1695 16.2271 93.3249 17.3217C93.4536 18.2293 94.1409 19.0018 94.8435 19.2993C96.0395 19.8083 97.2863 19.8424 98.572 19.6645C99.9923 19.4683 101.35 18.4898 101.99 16.9321C102.537 15.6013 102.426 13.9638 101.442 12.9673ZM31.2497 12.6303C31.1092 12.6181 31.0076 12.8696 31.0076 12.8696L29.3992 15.7329L29.3777 15.8344L29.366 15.9106L29.3992 15.9878L29.4314 16.0424L29.4949 16.0854L29.5691 16.1069L29.6863 16.1313H29.9314L30.0593 16.144L30.1882 16.1313H30.3464L30.5085 16.1196H30.7117L32.2869 15.9536C32.2869 15.9536 32.4159 15.9472 32.4919 15.896L32.5173 15.8745C32.5822 15.802 32.5106 15.6636 32.5085 15.6596L31.4109 12.771C31.409 12.7656 31.3638 12.6394 31.2497 12.6303Z" fill="white"/>
  <path d="M19.7473 5.08077C21.0509 5.77683 22.2619 6.31957 22.8808 7.85581C23.4878 9.36752 22.238 15.721 22.2529 19.9648C22.2529 20.1672 22.2529 20.3696 22.2499 20.5719C22.3067 22.0898 21.7267 25.0519 20.4888 24.3589C20.0882 24.135 19.4991 22.8656 19.0327 21.4336C18.2762 19.1093 18.9011 13.3691 18.2732 13.2464C17.2925 14.4638 14.6613 16.6256 13.6627 17.294C11.9524 18.4347 11.4052 16.8586 11.1062 15.8344C10.7385 14.5803 9.31823 11.7961 9.03418 11.5661C8.8189 11.3913 8.80096 11.6397 8.7591 11.7869C8.65744 12.1518 8.11326 16.0184 7.52723 18.1311C6.89634 20.3972 5.40434 24.135 4.70767 25.0151C4.01399 25.8951 1.12865 26.6464 0.548597 26.674C0.171859 26.766 2.5788 21.6636 3.14989 19.5079C3.96316 17.2909 5.20102 12.1794 5.35949 8.75425C5.49104 6.49742 5.29969 4.39084 5.27278 3.78064C5.27278 2.96192 6.08007 2.51731 6.53156 2.41918C7.05182 2.30879 8.18801 2.09415 9.35112 3.43414C10.0358 4.22219 11.0943 6.84698 11.3873 7.49705C11.7521 8.30963 13.2859 11.9831 13.5162 12.8448C14.2846 12.2744 15.4208 11.1276 16.5719 9.8336C17.8098 8.44148 19.1882 6.10799 19.3407 4.95505C19.4872 4.90292 19.6217 5.01024 19.7503 5.08384" fill="white"/>
</svg>
