<?xml version="1.0" encoding="UTF-8"?>
<svg id="a" xmlns="http://www.w3.org/2000/svg" width="141.11mm" height="16.37mm" viewBox="0 0 400 46.4">
   <path d="M56.59,11.39c-1.92-1.24-4.3-1.86-7.14-1.86-2.16,0-4.06,.38-5.71,1.14-1.65,.76-3.02,1.77-4.14,3.05-1.11,1.28-1.95,2.73-2.52,4.35-.56,1.63-.85,3.31-.85,5.06v.92c0,1.68,.28,3.32,.85,4.94,.56,1.61,1.4,3.07,2.52,4.38,1.11,1.31,2.52,2.35,4.21,3.12,1.69,.77,3.67,1.16,5.93,1.16s4.09-.37,5.78-1.11c1.69-.74,3.09-1.79,4.19-3.15,1.09-1.35,1.84-2.93,2.23-4.74h-6.19c-.29,.97-.95,1.78-1.98,2.44-1.03,.66-2.37,.99-4.02,.99s-3-.36-4.06-1.09c-1.06-.73-1.86-1.72-2.37-3-.34-.84-.52-1.79-.64-2.78h19.71v-2.42c0-2.32-.48-4.49-1.45-6.51-.97-2.01-2.41-3.65-4.33-4.89Zm-10.91,4.72c1.03-.68,2.29-1.02,3.77-1.02s2.72,.32,3.7,.97c.99,.65,1.72,1.57,2.2,2.76,.27,.67,.45,1.45,.57,2.27h-13.18c.13-.74,.33-1.43,.59-2.06,.53-1.28,1.31-2.25,2.35-2.93Z" fill="#20434f"/>
   <path d="M98.32,9.63h-.29c-2.1,0-3.85,.45-5.25,1.35s-2.46,2.25-3.17,4.04c-.26,.65-.42,1.43-.58,2.2v-6.77h-5.32v26.27h6.73v-15.44c0-1.71,.51-3.07,1.52-4.09s2.35-1.52,3.99-1.52,2.88,.5,3.8,1.5c.92,1,1.38,2.3,1.38,3.92v15.63h6.73v-15.05c0-4-.8-7.01-2.42-9.02-1.62-2.01-3.99-3.02-7.11-3.02Z" fill="#20434f"/>
   <polygon points="65.56 10.45 65.56 15.48 69.24 15.48 69.24 36.72 75.97 36.72 75.97 15.48 75.97 10.45 69.24 10.45 65.56 10.45" fill="#20434f"/>
   <polygon points="112.11 1.4 112.11 6.44 115.4 6.44 115.4 36.72 122.13 36.72 122.13 6.44 122.13 1.4 115.4 1.4 112.11 1.4" fill="#20434f"/>
   <polygon points="23.18 16.02 6.87 16.02 6.87 1.4 0 1.4 0 36.72 6.87 36.72 6.87 22.06 23.18 22.06 23.18 36.72 30.05 36.72 30.05 1.4 23.18 1.4 23.18 16.02" fill="#20434f"/>
   <path d="M71.71,7.31c1.32,0,2.29-.34,2.9-1.04,.61-.7,.92-1.57,.92-2.64s-.31-1.94-.92-2.61-1.58-1.02-2.9-1.02-2.3,.34-2.93,1.02-.94,1.55-.94,2.61,.31,1.94,.94,2.64c.63,.7,1.6,1.04,2.93,1.04Z" fill="#20434f"/>
   <path d="M163.3,7.31c1.32,0,2.29-.34,2.9-1.04,.61-.7,.92-1.57,.92-2.64s-.31-1.94-.92-2.61c-.62-.68-1.58-1.02-2.9-1.02s-2.3,.34-2.93,1.02-.94,1.55-.94,2.61,.31,1.94,.94,2.64c.63,.7,1.6,1.04,2.93,1.04Z" fill="#20434f"/>
   <path d="M366.35,13.5c-1.08-1.23-2.37-2.18-3.87-2.86s-3.18-1.02-5.06-1.02c-2.03,0-3.87,.44-5.52,1.33-1.64,.89-2.96,2.23-3.94,4.04-.36,.66-.6,1.45-.85,2.23v-6.78h-5.32V46.4h6.73v-13.3c.95,1.41,2.08,2.54,3.51,3.26,1.63,.82,3.43,1.23,5.39,1.23s3.57-.34,5.08-1.04c1.52-.7,2.82-1.66,3.89-2.9,1.08-1.24,1.91-2.68,2.47-4.31,.57-1.63,.85-3.39,.85-5.3v-1.02c0-1.87-.29-3.62-.87-5.25-.58-1.63-1.41-3.05-2.49-4.28Zm-4.28,14.39c-.61,1.28-1.46,2.27-2.54,2.98-1.08,.71-2.35,1.06-3.8,1.06-1.26,0-2.45-.29-3.58-.87-1.12-.58-2.04-1.4-2.76-2.47-.71-1.06-1.06-2.35-1.06-3.87v-1.94c0-1.58,.35-2.93,1.04-4.06,.7-1.13,1.6-1.98,2.71-2.56,1.11-.58,2.33-.87,3.65-.87,1.45,0,2.72,.34,3.8,1.04,1.08,.7,1.93,1.65,2.54,2.88,.62,1.23,.92,2.68,.92,4.35s-.3,3.05-.92,4.33Z" fill="#20434f"/>
   <path d="M333.01,13.5c-1.08-1.23-2.37-2.18-3.87-2.86-1.5-.68-3.18-1.02-5.06-1.02-2.03,0-3.87,.44-5.52,1.33-1.64,.89-2.96,2.23-3.94,4.04-.36,.66-.6,1.45-.85,2.23v-6.78h-5.32V46.4h6.73v-13.3c.95,1.41,2.08,2.54,3.51,3.26,1.63,.82,3.43,1.23,5.4,1.23s3.57-.34,5.08-1.04c1.52-.7,2.82-1.66,3.89-2.9,1.08-1.24,1.91-2.68,2.47-4.31,.57-1.63,.85-3.39,.85-5.3v-1.02c0-1.87-.29-3.62-.87-5.25-.58-1.63-1.41-3.05-2.49-4.28Zm-4.28,14.39c-.61,1.28-1.46,2.27-2.54,2.98-1.08,.71-2.35,1.06-3.8,1.06-1.26,0-2.45-.29-3.58-.87-1.13-.58-2.04-1.4-2.76-2.47-.71-1.06-1.06-2.35-1.06-3.87v-1.94c0-1.58,.35-2.93,1.04-4.06,.7-1.13,1.6-1.98,2.71-2.56,1.11-.58,2.33-.87,3.65-.87,1.45,0,2.72,.34,3.8,1.04,1.08,.7,1.93,1.65,2.54,2.88,.62,1.23,.92,2.68,.92,4.35s-.3,3.05-.92,4.33Z" fill="#20434f"/>
   <path d="M148.18,11.39c-1.92-1.24-4.3-1.86-7.14-1.86-2.17,0-4.06,.38-5.71,1.14-1.64,.76-3.02,1.77-4.14,3.05-1.11,1.28-1.95,2.73-2.52,4.35-.57,1.63-.85,3.31-.85,5.06v.92c0,1.68,.28,3.32,.85,4.94,.56,1.61,1.4,3.07,2.52,4.38,1.11,1.31,2.52,2.35,4.21,3.12,1.69,.77,3.66,1.16,5.93,1.16s4.09-.37,5.78-1.11c1.69-.74,3.08-1.79,4.19-3.15,1.09-1.35,1.84-2.93,2.23-4.74h-6.19c-.29,.97-.96,1.78-1.98,2.44-1.03,.66-2.37,.99-4.02,.99s-3-.36-4.06-1.09-1.86-1.72-2.37-3c-.34-.84-.53-1.79-.64-2.78h19.71v-2.42c0-2.32-.48-4.49-1.45-6.51-.97-2.01-2.41-3.65-4.33-4.89Zm-10.91,4.72c1.03-.68,2.29-1.02,3.77-1.02s2.72,.32,3.7,.97c.98,.65,1.72,1.57,2.2,2.76,.27,.67,.45,1.45,.57,2.27h-13.18c.13-.74,.33-1.43,.59-2.06,.53-1.28,1.31-2.25,2.35-2.93Z" fill="#20434f"/>
   <path d="M264.96,13.02c-1.22,1.47-1.98,3.48-2.27,6.02V10.45h-5.32v26.27h6.73v-13.69c0-2.29,.62-4.04,1.86-5.25,1.25-1.21,2.99-1.81,5.25-1.81h1.84v-5.85h-.97c-3.13,0-5.5,.97-7.11,2.9Z" fill="#20434f"/>
   <path d="M400,22.79c0-2.32-.48-4.49-1.45-6.51-.97-2.01-2.41-3.65-4.33-4.89-1.92-1.24-4.3-1.86-7.14-1.86-2.16,0-4.06,.38-5.71,1.14-1.65,.76-3.02,1.77-4.14,3.05-1.11,1.28-1.95,2.73-2.52,4.35-.56,1.63-.85,3.31-.85,5.06v.92c0,1.68,.28,3.32,.85,4.94,.56,1.61,1.4,3.07,2.52,4.38,1.11,1.31,2.52,2.35,4.21,3.12,1.69,.77,3.67,1.16,5.93,1.16s4.09-.37,5.78-1.11c1.69-.74,3.09-1.79,4.19-3.15,1.09-1.35,1.84-2.93,2.23-4.74h-6.19c-.29,.97-.95,1.78-1.98,2.44-1.03,.66-2.37,.99-4.02,.99s-3-.36-4.06-1.09c-1.06-.73-1.86-1.72-2.37-3-.34-.84-.52-1.79-.64-2.78h19.71v-2.42Zm-16.69-6.68c1.03-.68,2.29-1.02,3.77-1.02s2.72,.32,3.7,.97c.99,.65,1.72,1.57,2.2,2.76,.27,.67,.45,1.45,.57,2.27h-13.18c.13-.74,.33-1.43,.59-2.06,.53-1.28,1.31-2.25,2.35-2.93Z" fill="#20434f"/>
   <path d="M293.99,25.93c0,1.71-.49,3.07-1.48,4.06-.98,1-2.25,1.5-3.8,1.5s-2.77-.48-3.68-1.43c-.9-.95-1.35-2.23-1.35-3.85V10.4h-6.73v15.24c0,3.94,.83,6.9,2.49,8.9,1.66,2,4.01,3,7.04,3h.29c2.03,0,3.73-.45,5.08-1.35,1.35-.9,2.37-2.24,3.05-4.02,.21-.56,.34-1.25,.48-1.9v6.45h5.32V10.4h-6.73v15.53Z" fill="#20434f"/>
   <path d="M232.98,23.9h9.97v3.83c-.73,.83-1.57,1.59-2.66,2.2-1.78,.99-3.84,1.48-6.19,1.48-1.78,0-3.37-.28-4.79-.85-1.42-.56-2.63-1.39-3.63-2.47-1-1.08-1.78-2.4-2.32-3.94-.55-1.55-.82-3.31-.82-5.27,0-1.81,.25-3.45,.75-4.94,.5-1.48,1.22-2.76,2.15-3.82,.93-1.06,2.07-1.89,3.41-2.47,1.34-.58,2.83-.87,4.48-.87s3.15,.29,4.52,.87c1.37,.58,2.5,1.41,3.41,2.49,.9,1.08,1.46,2.38,1.69,3.89h6.92c-.26-2.71-1.11-5.09-2.56-7.14-1.45-2.05-3.38-3.65-5.76-4.79-2.39-1.14-5.13-1.72-8.23-1.72-2.87,0-5.41,.51-7.62,1.52-2.21,1.02-4.06,2.38-5.56,4.09-1.5,1.71-2.64,3.63-3.41,5.76-.77,2.13-1.16,4.31-1.16,6.53v1.06c0,2.35,.39,4.62,1.19,6.8,.79,2.18,1.97,4.13,3.53,5.85,1.56,1.72,3.5,3.1,5.81,4.11,2.3,1.02,4.97,1.52,8.01,1.52,3.39,0,6.39-.64,9-1.91,2.61-1.28,4.68-3.05,6.19-5.35v-6.48h2.95v-5.13h-19.26v5.13Z" fill="#20434f"/>
   <polygon points="157.16 10.45 157.16 15.48 160.83 15.48 160.83 36.72 167.56 36.72 167.56 15.48 167.56 10.45 160.83 10.45 157.16 10.45" fill="#20434f"/>
   <path d="M189.91,9.63h-.29c-2.1,0-3.85,.45-5.25,1.35s-2.46,2.25-3.17,4.04c-.26,.65-.42,1.42-.58,2.19v-6.76h-5.32v26.27h6.73v-15.44c0-1.71,.51-3.07,1.52-4.09s2.35-1.52,3.99-1.52,2.88,.5,3.8,1.5,1.38,2.3,1.38,3.92v15.63h6.73v-15.05c0-4-.81-7.01-2.42-9.02-1.62-2.01-3.99-3.02-7.11-3.02Z" fill="#20434f"/>
</svg>
