<?xml version="1.0" encoding="UTF-8" standalone="no"?> <svg xmlns:inkscape="http://www.inkscape.org/namespaces/inkscape" xmlns:sodipodi="http://sodipodi.sourceforge.net/DTD/sodipodi-0.dtd" xmlns="http://www.w3.org/2000/svg" xmlns:svg="http://www.w3.org/2000/svg" width="72.718079mm" height="72.718079mm" viewBox="0 0 72.718079 72.718079" version="1.1" id="svg1" inkscape:version="1.3.2 (091e20e, 2023-11-25)"><defs id="defs1"></defs><g inkscape:label="Ebene 1" inkscape:groupmode="layer" id="layer1" transform="translate(-68.61228,-112.26853)"><g id="g10" transform="matrix(2.6458333,0,0,2.6458333,8.6100721,-163.75274)"><polygon class="st2" points="22.678,131.807 22.678,104.323 50.162,104.323 50.162,131.807 " id="polygon6" style="fill:#0050aa"></polygon><path class="st3" d="m 36.419,105.051 c -7.184,0 -13.013,5.829 -13.013,13.018 0,7.184 5.829,13.011 13.013,13.011 7.184,0 13.014,-5.827 13.014,-13.011 0,-7.189 -5.83,-13.018 -13.014,-13.018 z" id="path7" style="fill:#e60a14"></path><path class="st4" d="m 36.419,105.875 c -6.732,0 -12.189,5.46 -12.189,12.194 0,6.727 5.46,12.187 12.189,12.187 6.729,0 12.189,-5.46 12.189,-12.187 0,-6.734 -5.46,-12.194 -12.189,-12.194 z" id="path8" style="fill:#fff000"></path><polygon class="st2" points="45.614,115.802 41.777,115.802 41.777,116.629 42.419,116.629 42.419,119.501 41.777,119.501 41.777,120.333 47.195,120.333 47.195,118.069 44.972,119.304 44.972,116.629 45.614,116.629 " id="polygon8" style="fill:#0050aa"></polygon><path class="st2" d="m 39.128,118.92 h -0.182 v -1.71 h 0.153 c 0.8,-0.002 0.8,1.713 0.029,1.71 z m 0.514,-3.118 h -3.655 v 0.827 h 0.64 v 2.872 h -0.64 v 0.832 h 3.655 c 2.701,0 2.728,-4.531 0,-4.531 z" id="path9" style="fill:#0050aa"></path><polygon class="st3" points="33.51,116.257 31.03,118.74 31.03,119.574 31.655,118.947 33.386,120.683 32.747,121.321 33.163,121.739 36.626,118.271 36.626,117.439 35.663,118.407 " id="polygon9" style="fill:#e60a14"></polygon><path class="st3" d="m 33.194,113.227 c 0.754,0 1.364,0.608 1.364,1.362 0,0.754 -0.61,1.364 -1.364,1.364 -0.754,0 -1.364,-0.61 -1.364,-1.364 0,-0.757 0.61,-1.362 1.364,-1.362 z" id="path10" style="fill:#e60a14"></path><polygon class="st2" points="25.616,116.629 25.616,115.802 29.449,115.802 29.449,116.629 28.809,116.629 28.809,119.304 31.03,118.069 31.03,120.333 25.616,120.333 25.616,119.501 26.258,119.501 26.258,116.629 " id="polygon10" style="fill:#0050aa"></polygon></g></g></svg>
